<?xml version="1.0" standalone="no"?>
<!DOCTYPE svg PUBLIC "-//W3C//DTD SVG 20010904//EN"
 "http://www.w3.org/TR/2001/REC-SVG-20010904/DTD/svg10.dtd">
<svg version="1.0" xmlns="http://www.w3.org/2000/svg"
 width="700.000000pt" height="700.000000pt" viewBox="0 0 700.000000 700.000000"
 preserveAspectRatio="xMidYMid meet">
<metadata>
Created by potrace 1.11, written by Peter Selinger 2001-2013
</metadata>
<g transform="translate(0.000000,700.000000) scale(0.100000,-0.100000)"
fill="#000000" stroke="none">
<path d="M3225 6934 c-139 -14 -305 -38 -411 -60 -701 -142 -1362 -513 -1838
-1032 -495 -541 -787 -1163 -893 -1902 -25 -177 -25 -691 0 -870 47 -334 129
-632 255 -925 326 -757 906 -1366 1647 -1730 769 -377 1644 -453 2475 -214
424 123 874 360 1217 644 1117 924 1541 2426 1068 3785 -121 348 -315 706
-529 980 -565 721 -1363 1178 -2276 1306 -110 15 -617 28 -715 18z m686 -148
c492 -64 1004 -254 1397 -516 213 -143 345 -252 532 -439 266 -267 461 -536
613 -846 240 -488 348 -951 348 -1485 0 -842 -302 -1613 -877 -2242 -532 -581
-1277 -956 -2074 -1043 -188 -20 -510 -20 -705 0 -519 54 -1052 246 -1477 532
-259 174 -568 456 -752 688 -380 478 -620 1043 -703 1659 -24 175 -23 654 1
826 93 666 357 1256 780 1745 263 304 612 583 951 760 408 213 857 343 1310
379 108 8 545 -3 656 -18z"/>
<path d="M3250 6730 c-418 -38 -754 -127 -1128 -299 -671 -306 -1247 -883
-1554 -1555 -260 -568 -355 -1155 -283 -1756 86 -730 428 -1423 952 -1931 512
-497 1105 -785 1843 -896 161 -24 664 -24 832 0 603 86 1139 313 1599 678 135
107 414 385 519 519 365 461 591 996 677 1599 24 167 24 670 0 831 -111 738
-399 1330 -896 1843 -509 525 -1196 864 -1931 953 -152 18 -500 26 -630 14z
m553 -305 c868 -84 1666 -573 2160 -1325 254 -388 422 -868 457 -1304 48 -612
-47 -1118 -307 -1628 -141 -277 -308 -505 -542 -739 -234 -234 -462 -401 -739
-542 -519 -264 -1049 -361 -1662 -302 -639 61 -1266 361 -1741 835 -308 307
-527 642 -683 1045 -255 660 -247 1476 20 2129 306 746 894 1334 1640 1640
416 170 909 238 1397 191z"/>
<path d="M5075 4604 c-144 -20 -196 -29 -302 -55 -138 -33 -344 -102 -478
-159 -290 -124 -1045 -513 -1750 -904 -408 -225 -557 -289 -757 -321 -211 -34
-378 28 -476 175 -86 129 -77 278 25 391 39 43 35 50 -11 18 -103 -71 -156
-226 -122 -357 22 -87 47 -132 116 -205 105 -113 223 -159 410 -160 249 -1
398 48 880 289 347 174 937 483 1285 673 363 198 656 335 867 405 443 147 778
157 1121 33 37 -14 67 -21 67 -16 0 12 -115 73 -205 109 -147 59 -269 81 -465
85 -96 2 -188 1 -205 -1z"/>
<path d="M1613 4381 c-337 -54 -634 -300 -746 -618 -27 -78 -31 -104 -35 -224
-4 -115 -1 -149 17 -219 60 -237 221 -434 446 -546 136 -67 221 -86 407 -91
183 -6 284 8 466 63 296 90 567 223 1386 683 718 403 1026 556 1365 677 227
81 343 101 473 84 112 -15 177 -35 278 -83 67 -33 102 -58 165 -122 134 -133
180 -249 173 -435 -7 -181 -65 -305 -208 -451 -129 -131 -244 -190 -435 -225
-96 -17 -162 -18 -258 -3 -160 24 -309 80 -431 163 -38 25 -71 44 -73 42 -10
-10 138 -120 216 -160 165 -84 294 -117 467 -117 252 -2 462 87 636 269 243
255 294 598 133 889 -44 79 -161 200 -250 258 -149 98 -319 147 -505 148 -215
1 -384 -48 -862 -254 -247 -105 -541 -259 -1128 -589 -598 -336 -868 -476
-1068 -554 -129 -50 -305 -94 -431 -106 -233 -24 -449 35 -599 162 -242 205
-311 540 -171 821 172 343 559 532 944 462 181 -33 308 -87 495 -212 19 -13
17 -8 -10 21 -83 90 -273 193 -450 243 -94 27 -308 39 -407 24z"/>
<path d="M5185 4049 c-77 -11 -216 -51 -330 -95 -82 -32 -564 -277 -745 -379
-41 -23 -164 -90 -272 -149 -109 -59 -359 -197 -555 -307 -626 -351 -898 -475
-1213 -554 -165 -41 -239 -50 -415 -49 -186 0 -313 19 -449 69 -38 14 -71 23
-73 21 -14 -13 166 -100 282 -135 121 -38 228 -51 404 -51 379 1 720 103 1266
380 365 186 1454 784 1646 905 112 71 321 160 457 195 214 54 380 27 498 -82
88 -81 132 -185 120 -285 -9 -74 -27 -113 -77 -168 -23 -25 -40 -48 -37 -51
12 -11 95 65 125 115 77 129 67 270 -29 414 -114 169 -336 245 -603 206z"/>
</g>
</svg>
